<?xml version="1.0" encoding="utf-8"?>
<!-- Generator: Adobe Illustrator 26.0.0, SVG Export Plug-In . SVG Version: 6.00 Build 0)  -->
<svg version="1.1" xmlns="http://www.w3.org/2000/svg" xmlns:xlink="http://www.w3.org/1999/xlink" x="0px" y="0px"
	 viewBox="0 0 1920 1080" style="enable-background:new 0 0 1920 1080;" xml:space="preserve">
<style type="text/css">
	.st0{fill:#64FD50;stroke:#64FD50;stroke-width:5;stroke-linecap:round;stroke-linejoin:round;stroke-miterlimit:10;}
	.st1{fill:none;}
	.st2{stroke:#000000;stroke-width:5;stroke-linecap:round;stroke-linejoin:round;stroke-miterlimit:10;}
	.st3{fill:#051A6B;stroke:#051A6B;stroke-width:5;stroke-linecap:round;stroke-linejoin:round;stroke-miterlimit:10;}
	.st4{fill:#64FD50;}
	.st5{fill:#FFFFFF;}
	.st6{fill:#051A6B;}
	.st7{display:none;}
	.st8{display:inline;}
	.st9{fill:#051A6A;}
	.st10{fill:#67FC53;}
	.st11{fill:#65FD51;}
</style>
<g id="Fonts">
</g>
<g id="Global_labels">
</g>
<g id="color_palette">
</g>
<g id="Alt_logo_white">
</g>
<g id="Alt_Logo">
	<g>
		<g>
			<path class="st4" d="M223.2,319.1h151.2V365h-98.82v32.13h89.37v43.47h-89.37v67.5H223.2V319.1z"/>
			<path class="st4" d="M395.73,425.21V319.1h53.19v105.03c0,27.27,13.77,40.23,34.83,40.23c21.06,0,34.83-12.42,34.83-38.88V319.1
				h53.19v104.76c0,61.02-34.83,87.75-88.56,87.75C429.48,511.61,395.73,484.34,395.73,425.21z"/>
			<path class="st4" d="M648.99,365h-56.7v-45.9h165.78V365h-56.7v143.1h-52.38V365z"/>
		</g>
		<g>
			<path class="st6" d="M1004.61,654.54v-0.52c0-53.55,41.21-95.55,96.87-95.55c37.54,0,61.69,15.75,77.97,38.33l-38.33,29.66
				c-10.5-13.13-22.58-21.53-40.16-21.53c-25.73,0-43.84,21.79-43.84,48.56v0.53c0,27.56,18.11,49.09,43.84,49.09
				c19.16,0,30.45-8.93,41.48-22.31l38.33,27.3c-17.33,23.89-40.69,41.48-81.38,41.48C1046.88,749.57,1004.61,709.4,1004.61,654.54z
				"/>
			<path class="st6" d="M1203.6,562.13h51.19v183.76h-51.19V562.13z"/>
			<path class="st6" d="M1288.39,562.13h70.88c65.63,0,103.69,37.8,103.69,90.83v0.52c0,53.03-38.59,92.4-104.74,92.4h-69.83V562.13
				z M1360.05,700.74c30.45,0,50.67-16.8,50.67-46.46v-0.53c0-29.4-20.21-46.46-50.67-46.46h-20.74v93.45H1360.05z"/>
			<g>
				<path class="st6" d="M223.2,561.68h89.37c28.89,0,48.87,7.56,61.56,20.52c11.07,10.8,16.74,25.38,16.74,44.01v0.54
					c0,28.89-15.39,48.06-38.88,58.05l45.09,65.88H336.6l-38.07-57.24h-0.54h-22.41v57.24H223.2V561.68z M310.14,652.4
					c17.82,0,28.08-8.64,28.08-22.41v-0.54c0-14.85-10.8-22.41-28.35-22.41h-34.29v45.36H310.14z"/>
				<path class="st6" d="M417.33,561.68h152.01v44.55H469.17v28.62h90.72v41.31h-90.72v29.97h101.52v44.55H417.33V561.68z"/>
				<path class="st6" d="M597.42,561.68h72.9c67.5,0,106.65,38.88,106.65,93.42v0.54c0,54.54-39.69,95.04-107.73,95.04h-71.82
					V561.68z M671.13,704.24c31.32,0,52.11-17.28,52.11-47.79v-0.54c0-30.24-20.79-47.79-52.11-47.79H649.8v96.12H671.13z"/>
				<path class="st6" d="M801.54,667.79V561.68h53.19v105.03c0,27.27,13.77,40.23,34.83,40.23c21.06,0,34.83-12.42,34.83-38.88
					V561.68h53.19v104.76c0,61.02-34.83,87.75-88.56,87.75C835.29,754.19,801.54,726.92,801.54,667.79z"/>
			</g>
		</g>
		<g>
			<path class="st6" d="M1532.14,567c4.45-2.78,8.36-4.58,10.84-5.63c8.4-3.63,23.97-9.01,43.74-7.9
				c32.04,1.79,53.42,19.42,61.12,26.58c27.56,25.62,31.11,58.01,31.74,65.69c0.46,7.41,1.72,40.74-22.71,70.15
				c-0.48,0.58-1.23,1.48-2.22,2.63c-3.43,3.96-27.76,30.79-61.3,32.3c-6.86,0.31-26.65,0.13-37.69-4
				c-1.46-0.54-8.53-3.31-9.65-1.58c-0.32,0.49-0.06,1.19,0.04,1.45c1.57,4.17,23.76,10.13,30.31,11.84
				c4.3,0.72,8.59,1.45,12.89,2.17c8.67,0.58,23.41,0.45,40.21-5.52c24.55-8.72,39.22-24.73,45.38-32.79
				c5.79-7.57,14.91-21.55,19.38-41.3c5.33-23.57,1.04-42.48-0.86-50.43c-1.24-5.19-3.95-14.98-9.73-26.3
				c-7.9-15.47-17.32-25.57-21.84-30.05c-17.31-17.19-35.21-24.11-39.49-25.68c-1.55-0.57-7.97-2.89-16.75-4.71
				c-6.14-1.27-13.9-2.89-24.07-2.55c-11.06,0.36-19.41,2.84-26.01,4.84c-7.58,2.3-13.42,4.88-16.85,6.5c0,0-20.47,9.67-32.08,27.25
				c-0.37,0.56-1.32,2-0.83,3.23c0,0,0.28,0.7,1.07,1.14C1509.58,585.86,1519.99,574.59,1532.14,567z"/>
			<polygon class="st4" points="1551.04,579.2 1553.06,611.78 1591.4,623.28 1622.41,596.79 1614.31,571.99 1581.58,561.67 			"/>
			<polygon class="st4" points="1515.08,644.95 1525.52,687.26 1562.14,704.84 1598.51,682.03 1589.5,635.7 1546.76,623.48 			"/>
			<polygon class="st4" points="1629.87,607 1598.51,632.61 1606.6,680.51 1648.36,689.72 1675.07,661.04 1668.49,621.02 			"/>
			<polygon class="st4" points="1604.09,687.6 1567.39,709.66 1579.96,739.97 1614.98,741.41 1642.74,724.82 1641.44,699.34 			"/>
			<polyline class="st4" points="1512.79,708.47 1525.87,697.07 1560.98,713.57 1570.61,738.81 1545.98,740.59 1527.72,730.89 
				1512.79,708.47 			"/>
			<polygon class="st4" points="1518.79,695.32 1510.17,702.77 1495.61,683.81 1489.69,666.52 1489.07,650.4 1493.19,636.39 
				1508.83,642.8 			"/>
			<polygon class="st4" points="1496.63,627.59 1504.67,602.43 1522.5,583.69 1542.08,583.69 1540.43,613.4 1512.4,632.11 			"/>
			<polygon class="st4" points="1526.42,575.69 1542.65,565.85 1567.21,559.04 1546.81,573.55 			"/>
			<polygon class="st4" points="1624,569.94 1641.69,578.51 1654.09,591.35 1661.9,603.19 1665.07,611.38 1647.79,605.1 
				1632.12,597.61 			"/>
			<polygon class="st4" points="1671.33,672.48 1665.65,693.66 1650.33,718.63 1647.15,695.09 			"/>
		</g>
	</g>
</g>
<g id="Logo">
	<g id="Lineas_guia" class="st7">
	</g>
	<g id="Capa_3" class="st7">
	</g>
	<g id="Capa_4">
	</g>
</g>
</svg>
