<?xml version="1.0" encoding="utf-8"?>
<!-- Generator: Adobe Illustrator 26.0.0, SVG Export Plug-In . SVG Version: 6.00 Build 0)  -->
<svg version="1.1" id="Capa_1" xmlns="http://www.w3.org/2000/svg" xmlns:xlink="http://www.w3.org/1999/xlink" x="0px" y="0px"
	 viewBox="0 0 1920 1080" style="enable-background:new 0 0 1920 1080;" xml:space="preserve">
<style type="text/css">
	.st0{display:none;}
	.st1{fill:#FFFFFF;}
	.st2{fill:#64FD50;}
</style>
<g id="Global_labels">
</g>
<g id="color_palette">
</g>
<g id="Alt_Logo">
</g>
<g id="Logo">
	<g id="Lineas_guia">
	</g>
	<g id="Capa_3" class="st0">
	</g>
	<g id="Capa_4">
		<g>
			<g>
				<path class="st1" d="M577.2,777.8v-0.5c0-53.5,41.2-95.5,96.9-95.5c37.5,0,61.7,15.8,78,38.3l-38.3,29.7
					c-10.5-13.1-22.6-21.5-40.2-21.5c-25.7,0-43.8,21.8-43.8,48.6v0.5c0,27.6,18.1,49.1,43.8,49.1c19.2,0,30.5-8.9,41.5-22.3
					l38.3,27.3c-17.3,23.9-40.7,41.5-81.4,41.5C619.5,872.8,577.2,832.7,577.2,777.8z"/>
				<path class="st1" d="M776.2,685.4h51.2v183.8h-51.2V685.4z"/>
				<path class="st1" d="M861,685.4h70.9c65.6,0,103.7,37.8,103.7,90.8v0.5c0,53-38.6,92.4-104.7,92.4H861V685.4z M932.7,824
					c30.5,0,50.7-16.8,50.7-46.5V777c0-29.4-20.2-46.5-50.7-46.5h-20.7V824H932.7z"/>
			</g>
			<g>
				<path class="st2" d="M577.1,181.9h151.2v45.9h-98.8V260h89.4v43.5h-89.4v67.5h-52.4V181.9z"/>
				<path class="st2" d="M749.6,288V181.9h53.2v105c0,27.3,13.8,40.2,34.8,40.2s34.8-12.4,34.8-38.9V181.9h53.2v104.8
					c0,61-34.8,87.8-88.6,87.8C783.4,374.4,749.6,347.2,749.6,288z"/>
				<path class="st2" d="M1002.9,227.8h-56.7v-45.9H1112v45.9h-56.7v143.1h-52.4V227.8z"/>
			</g>
			<g>
				<path class="st1" d="M577.1,435.9h89.4c28.9,0,48.9,7.6,61.6,20.5c11.1,10.8,16.7,25.4,16.7,44v0.5c0,28.9-15.4,48.1-38.9,58
					l45.1,65.9h-60.5l-38.1-57.2h-0.5h-22.4v57.2h-52.4V435.9z M664,526.6c17.8,0,28.1-8.6,28.1-22.4v-0.5
					c0-14.9-10.8-22.4-28.3-22.4h-34.3v45.4H664z"/>
				<path class="st1" d="M771.2,435.9h152v44.5H823.1v28.6h90.7v41.3h-90.7v30h101.5v44.5H771.2V435.9z"/>
				<path class="st1" d="M951.3,435.9h72.9c67.5,0,106.7,38.9,106.7,93.4v0.5c0,54.5-39.7,95-107.7,95h-71.8V435.9z M1025,578.5
					c31.3,0,52.1-17.3,52.1-47.8v-0.5c0-30.2-20.8-47.8-52.1-47.8h-21.3v96.1L1025,578.5L1025,578.5z"/>
				<path class="st1" d="M1155.4,542V435.9h53.2v105c0,27.3,13.8,40.2,34.8,40.2c21.1,0,34.8-12.4,34.8-38.9V435.9h53.2v104.8
					c0,61-34.8,87.8-88.6,87.8C1189.2,628.4,1155.4,601.1,1155.4,542z"/>
			</g>
			<g>
				<path class="st1" d="M1111,683.7c4.4-2.8,8.4-4.6,10.8-5.6c8.4-3.6,24-9,43.7-7.9c32,1.8,53.4,19.4,61.1,26.6
					c27.6,25.6,31.1,58,31.7,65.7c0.5,7.4,1.7,40.7-22.7,70.2c-0.5,0.6-1.2,1.5-2.2,2.6c-3.4,4-27.8,30.8-61.3,32.3
					c-6.9,0.3-26.7,0.1-37.7-4c-1.5-0.5-8.5-3.3-9.7-1.6c-0.3,0.5-0.1,1.2,0,1.5c1.6,4.2,23.8,10.1,30.3,11.8
					c4.3,0.7,8.6,1.5,12.9,2.2c8.7,0.6,23.4,0.5,40.2-5.5c24.6-8.7,39.2-24.7,45.4-32.8c5.8-7.6,14.9-21.5,19.4-41.3
					c5.3-23.6,1-42.5-0.9-50.4c-1.2-5.2-3.9-15-9.7-26.3c-7.9-15.5-17.3-25.6-21.8-30c-17.3-17.2-35.2-24.1-39.5-25.7
					c-1.6-0.6-8-2.9-16.8-4.7c-6.1-1.3-13.9-2.9-24.1-2.5c-11.1,0.4-19.4,2.8-26,4.8c-7.6,2.3-13.4,4.9-16.8,6.5
					c0,0-20.5,9.7-32.1,27.2c-0.4,0.6-1.3,2-0.8,3.2c0,0,0.3,0.7,1.1,1.1C1088.4,702.6,1098.8,691.3,1111,683.7z"/>
				<polygon class="st2" points="1129.9,695.9 1131.9,728.5 1170.2,740 1201.2,713.5 1193.2,688.7 1160.4,678.4 				"/>
				<polygon class="st2" points="1093.9,761.7 1104.4,804 1141,821.5 1177.3,798.7 1168.3,752.4 1125.6,740.2 				"/>
				<polygon class="st2" points="1208.7,723.7 1177.3,749.3 1185.4,797.2 1227.2,806.4 1253.9,777.7 1247.3,737.7 				"/>
				<polygon class="st2" points="1182.9,804.3 1146.2,826.4 1158.8,856.7 1193.8,858.1 1221.6,841.5 1220.3,816 				"/>
				<polyline class="st2" points="1091.6,825.2 1104.7,813.8 1139.8,830.3 1149.4,855.5 1124.8,857.3 1106.6,847.6 1091.6,825.2 
									"/>
				<polygon class="st2" points="1097.6,812 1089,819.5 1074.4,800.5 1068.5,783.2 1067.9,767.1 1072,753.1 1087.7,759.5 				"/>
				<polygon class="st2" points="1075.5,744.3 1083.5,719.1 1101.3,700.4 1120.9,700.4 1119.3,730.1 1091.2,748.8 				"/>
				<polygon class="st2" points="1105.3,692.4 1121.5,682.5 1146.1,675.7 1125.7,690.2 				"/>
				<polygon class="st2" points="1202.8,686.6 1220.5,695.2 1232.9,708 1240.7,719.9 1243.9,728.1 1226.6,721.8 1211,714.3 				"/>
				<polygon class="st2" points="1250.2,789.2 1244.5,810.4 1229.2,835.3 1226,811.8 				"/>
			</g>
		</g>
	</g>
</g>
</svg>
