<?xml version="1.0" encoding="utf-8"?>
<!-- Generator: Adobe Illustrator 26.0.0, SVG Export Plug-In . SVG Version: 6.00 Build 0)  -->
<svg version="1.1" xmlns="http://www.w3.org/2000/svg" xmlns:xlink="http://www.w3.org/1999/xlink" x="0px" y="0px"
	 viewBox="0 0 1920 1080" style="enable-background:new 0 0 1920 1080;" xml:space="preserve">
<style type="text/css">
	.st0{stroke:#000000;stroke-width:5;stroke-linecap:round;stroke-linejoin:round;stroke-miterlimit:10;}
	.st1{fill:#64FD50;stroke:#64FD50;stroke-width:5;stroke-linecap:round;stroke-linejoin:round;stroke-miterlimit:10;}
	.st2{fill:#051A6B;stroke:#051A6B;stroke-width:5;stroke-linecap:round;stroke-linejoin:round;stroke-miterlimit:10;}
	.st3{fill:#64FD50;}
	.st4{fill:#051A6B;}
	.st5{display:none;}
	.st6{display:inline;}
	.st7{fill:#051A6A;}
	.st8{fill:#67FC53;}
	.st9{fill:#65FD51;}
</style>
<g id="Global_labels">
</g>
<g id="color_palette">
</g>
<g id="Alt_Logo">
	<g>
		<path class="st3" d="M288.97,321.82h151.2v45.9h-98.82v32.13h89.37v43.47h-89.37v67.5h-52.38V321.82z"/>
		<path class="st3" d="M461.5,427.93V321.82h53.19v105.03c0,27.27,13.77,40.23,34.83,40.23c21.06,0,34.83-12.42,34.83-38.88V321.82
			h53.19v104.76c0,61.02-34.83,87.75-88.56,87.75C495.25,514.34,461.5,487.06,461.5,427.93z"/>
		<path class="st3" d="M714.76,367.72h-56.7v-45.9h165.78v45.9h-56.7v143.1h-52.38V367.72z"/>
	</g>
	<g>
		<path class="st4" d="M1070.38,657.26v-0.52c0-53.55,41.21-95.55,96.87-95.55c37.54,0,61.69,15.75,77.97,38.33l-38.33,29.66
			c-10.5-13.13-22.58-21.53-40.16-21.53c-25.73,0-43.84,21.79-43.84,48.56v0.53c0,27.56,18.11,49.09,43.84,49.09
			c19.16,0,30.45-8.93,41.48-22.31l38.33,27.3c-17.33,23.89-40.69,41.48-81.38,41.48C1112.65,752.29,1070.38,712.13,1070.38,657.26z
			"/>
		<path class="st4" d="M1269.37,564.86h51.19v183.76h-51.19V564.86z"/>
		<path class="st4" d="M1354.16,564.86h70.88c65.63,0,103.69,37.8,103.69,90.83v0.52c0,53.03-38.59,92.4-104.74,92.4h-69.83V564.86z
			 M1425.83,703.46c30.45,0,50.67-16.8,50.67-46.46v-0.53c0-29.4-20.21-46.46-50.67-46.46h-20.74v93.45H1425.83z"/>
		<g>
			<path class="st4" d="M288.97,564.4h89.37c28.89,0,48.87,7.56,61.56,20.52c11.07,10.8,16.74,25.38,16.74,44.01v0.54
				c0,28.89-15.39,48.06-38.88,58.05l45.09,65.88h-60.48l-38.07-57.24h-0.54h-22.41v57.24h-52.38V564.4z M375.91,655.12
				c17.82,0,28.08-8.64,28.08-22.41v-0.54c0-14.85-10.8-22.41-28.35-22.41h-34.29v45.36H375.91z"/>
			<path class="st4" d="M483.1,564.4h152.01v44.55H534.94v28.62h90.72v41.31h-90.72v29.97h101.52v44.55H483.1V564.4z"/>
			<path class="st4" d="M663.19,564.4h72.9c67.5,0,106.65,38.88,106.65,93.42v0.54c0,54.54-39.69,95.04-107.73,95.04h-71.82V564.4z
				 M736.9,706.96c31.32,0,52.11-17.28,52.11-47.79v-0.54c0-30.24-20.79-47.79-52.11-47.79h-21.33v96.12H736.9z"/>
			<path class="st4" d="M867.31,670.51V564.4h53.19v105.03c0,27.27,13.77,40.23,34.83,40.23c21.06,0,34.83-12.42,34.83-38.88V564.4
				h53.19v104.76c0,61.02-34.83,87.75-88.56,87.75C901.06,756.91,867.31,729.64,867.31,670.51z"/>
		</g>
	</g>
	<g>
		<path class="st4" d="M1597.92,569.72c4.45-2.78,8.36-4.58,10.84-5.63c8.4-3.63,23.97-9.01,43.74-7.9
			c32.04,1.79,53.42,19.42,61.12,26.58c27.56,25.62,31.11,58.01,31.74,65.69c0.46,7.41,1.72,40.74-22.71,70.15
			c-0.48,0.58-1.23,1.48-2.22,2.63c-3.43,3.96-27.76,30.79-61.3,32.3c-6.86,0.31-26.65,0.13-37.69-4c-1.46-0.54-8.53-3.31-9.65-1.58
			c-0.32,0.49-0.06,1.19,0.04,1.45c1.57,4.17,23.76,10.13,30.31,11.84c4.3,0.72,8.59,1.45,12.89,2.17
			c8.67,0.58,23.41,0.45,40.21-5.52c24.55-8.72,39.22-24.73,45.38-32.79c5.79-7.57,14.91-21.55,19.38-41.3
			c5.33-23.57,1.04-42.48-0.86-50.43c-1.24-5.19-3.95-14.98-9.73-26.3c-7.9-15.47-17.32-25.57-21.84-30.05
			c-17.31-17.19-35.21-24.11-39.49-25.68c-1.55-0.57-7.97-2.89-16.75-4.71c-6.14-1.27-13.9-2.89-24.07-2.55
			c-11.06,0.36-19.41,2.84-26.01,4.84c-7.58,2.3-13.42,4.88-16.85,6.5c0,0-20.47,9.67-32.08,27.25c-0.37,0.56-1.32,2-0.83,3.23
			c0,0,0.28,0.7,1.07,1.14C1575.35,588.58,1585.76,577.31,1597.92,569.72z"/>
		<polygon class="st3" points="1616.81,581.92 1618.83,614.51 1657.18,626 1688.18,599.52 1680.08,574.71 1647.35,564.4 		"/>
		<polygon class="st3" points="1580.85,647.67 1591.29,689.99 1627.91,707.56 1664.28,684.75 1655.27,638.42 1612.53,626.21 		"/>
		<polygon class="st3" points="1695.64,609.73 1664.28,635.33 1672.38,683.24 1714.13,692.45 1740.84,663.76 1734.27,623.75 		"/>
		<polygon class="st3" points="1669.86,690.33 1633.17,712.38 1645.73,742.69 1680.75,744.13 1708.51,727.55 1707.21,702.06 		"/>
		<polyline class="st3" points="1578.56,711.19 1591.64,699.8 1626.75,716.3 1636.38,741.53 1611.75,743.31 1593.49,733.61 
			1578.56,711.19 		"/>
		<polygon class="st3" points="1584.56,698.05 1575.95,705.5 1561.38,686.54 1555.46,669.24 1554.84,653.12 1558.96,639.11 
			1574.6,645.52 		"/>
		<polygon class="st3" points="1562.4,630.31 1570.45,605.15 1588.27,586.41 1607.86,586.41 1606.2,616.12 1578.17,634.83 		"/>
		<polygon class="st3" points="1592.19,578.42 1608.42,568.58 1632.98,561.76 1612.59,576.28 		"/>
		<polygon class="st3" points="1689.77,572.66 1707.46,581.24 1719.86,594.08 1727.67,605.91 1730.84,614.1 1713.57,607.82 
			1697.89,600.33 		"/>
		<polygon class="st3" points="1737.1,675.21 1731.43,696.38 1716.1,721.35 1712.92,697.81 		"/>
	</g>
</g>
<g id="Logo">
	<g id="Lineas_guia">
	</g>
	<g id="Capa_3" class="st5">
	</g>
	<g id="Capa_4">
	</g>
</g>
</svg>
