<?xml version="1.0" encoding="utf-8"?>
<!-- Generator: Adobe Illustrator 26.0.0, SVG Export Plug-In . SVG Version: 6.00 Build 0)  -->
<svg version="1.1" xmlns="http://www.w3.org/2000/svg" xmlns:xlink="http://www.w3.org/1999/xlink" x="0px" y="0px"
	 viewBox="0 0 1920 1080" style="enable-background:new 0 0 1920 1080;" xml:space="preserve">
<style type="text/css">
	.st0{fill:none;}
	.st1{stroke:#000000;stroke-width:5;stroke-linecap:round;stroke-linejoin:round;stroke-miterlimit:10;}
	.st2{fill:#64FD50;stroke:#64FD50;stroke-width:5;stroke-linecap:round;stroke-linejoin:round;stroke-miterlimit:10;}
	.st3{fill:#051A6B;stroke:#051A6B;stroke-width:5;stroke-linecap:round;stroke-linejoin:round;stroke-miterlimit:10;}
	.st4{fill:#64FD50;}
	.st5{fill:#051A6B;}
	.st6{display:none;}
	.st7{display:inline;}
	.st8{fill:#051A6A;}
	.st9{fill:#67FC53;}
	.st10{fill:#65FD51;}
</style>
<g id="Global_labels">
</g>
<g id="color_palette">
</g>
<g id="Alt_Logo">
</g>
<g id="Logo">
	<g id="Lineas_guia">
	</g>
	<g id="Capa_3" class="st6">
	</g>
	<g id="Capa_4">
		<g>
			<g>
				<path class="st5" d="M577.22,777.79v-0.52c0-53.55,41.21-95.55,96.87-95.55c37.54,0,61.69,15.75,77.97,38.33l-38.33,29.66
					c-10.5-13.13-22.58-21.53-40.16-21.53c-25.73,0-43.84,21.79-43.84,48.56v0.53c0,27.56,18.11,49.09,43.84,49.09
					c19.16,0,30.45-8.93,41.48-22.31l38.33,27.3c-17.33,23.89-40.69,41.48-81.38,41.48C619.49,872.82,577.22,832.65,577.22,777.79z"
					/>
				<path class="st5" d="M776.21,685.38h51.19v183.76h-51.19V685.38z"/>
				<path class="st5" d="M861,685.38h70.88c65.63,0,103.69,37.8,103.69,90.83v0.52c0,53.03-38.59,92.4-104.74,92.4H861V685.38z
					 M932.66,823.99c30.45,0,50.67-16.8,50.67-46.46V777c0-29.4-20.21-46.46-50.67-46.46h-20.74v93.45H932.66z"/>
			</g>
			<g>
				<path class="st4" d="M577.1,181.92h151.2v45.9h-98.82v32.13h89.37v43.47h-89.37v67.5H577.1V181.92z"/>
				<path class="st4" d="M749.63,288.03V181.92h53.19v105.03c0,27.27,13.77,40.23,34.83,40.23c21.06,0,34.83-12.42,34.83-38.88
					V181.92h53.19v104.76c0,61.02-34.83,87.75-88.56,87.75C783.38,374.43,749.63,347.16,749.63,288.03z"/>
				<path class="st4" d="M1002.89,227.82h-56.7v-45.9h165.78v45.9h-56.7v143.1h-52.38V227.82z"/>
			</g>
			<g>
				<path class="st5" d="M577.1,435.89h89.37c28.89,0,48.87,7.56,61.56,20.52c11.07,10.8,16.74,25.38,16.74,44.01v0.54
					c0,28.89-15.39,48.06-38.88,58.05l45.09,65.88H690.5l-38.07-57.24h-0.54h-22.41v57.24H577.1V435.89z M664.04,526.61
					c17.82,0,28.08-8.64,28.08-22.41v-0.54c0-14.85-10.8-22.41-28.35-22.41h-34.29v45.36H664.04z"/>
				<path class="st5" d="M771.23,435.89h152.01v44.55H823.07v28.62h90.72v41.31h-90.72v29.97h101.52v44.55H771.23V435.89z"/>
				<path class="st5" d="M951.32,435.89h72.9c67.5,0,106.65,38.88,106.65,93.42v0.54c0,54.54-39.69,95.04-107.73,95.04h-71.82
					V435.89z M1025.03,578.45c31.32,0,52.11-17.28,52.11-47.79v-0.54c0-30.24-20.79-47.79-52.11-47.79h-21.33v96.12H1025.03z"/>
				<path class="st5" d="M1155.44,542V435.89h53.19v105.03c0,27.27,13.77,40.23,34.83,40.23c21.06,0,34.83-12.42,34.83-38.88V435.89
					h53.19v104.76c0,61.02-34.83,87.75-88.56,87.75C1189.19,628.4,1155.44,601.13,1155.44,542z"/>
			</g>
			<g>
				<path class="st5" d="M1110.99,683.7c4.45-2.78,8.36-4.58,10.84-5.63c8.4-3.63,23.97-9.01,43.74-7.9
					c32.04,1.79,53.42,19.42,61.12,26.58c27.56,25.62,31.11,58.01,31.74,65.69c0.46,7.41,1.72,40.74-22.71,70.15
					c-0.48,0.58-1.23,1.48-2.22,2.63c-3.43,3.96-27.76,30.79-61.3,32.3c-6.86,0.31-26.65,0.13-37.69-4
					c-1.46-0.54-8.53-3.31-9.65-1.58c-0.32,0.49-0.06,1.19,0.04,1.45c1.57,4.17,23.76,10.13,30.31,11.84
					c4.3,0.72,8.59,1.45,12.89,2.17c8.67,0.58,23.41,0.45,40.21-5.52c24.55-8.72,39.22-24.73,45.38-32.79
					c5.79-7.57,14.91-21.55,19.38-41.3c5.33-23.57,1.04-42.48-0.86-50.43c-1.24-5.19-3.95-14.98-9.73-26.3
					c-7.9-15.47-17.32-25.57-21.84-30.05c-17.31-17.19-35.21-24.11-39.49-25.68c-1.55-0.57-7.97-2.89-16.75-4.71
					c-6.14-1.27-13.9-2.89-24.07-2.55c-11.06,0.36-19.41,2.84-26.01,4.84c-7.58,2.3-13.42,4.88-16.85,6.5
					c0,0-20.47,9.67-32.08,27.25c-0.37,0.56-1.32,2-0.83,3.23c0,0,0.28,0.7,1.07,1.14C1088.42,702.56,1098.84,691.28,1110.99,683.7z
					"/>
				<polygon class="st4" points="1129.89,695.9 1131.9,728.48 1170.25,739.98 1201.25,713.49 1193.15,688.69 1160.42,678.37 				"/>
				<polygon class="st4" points="1093.92,761.65 1104.36,803.96 1140.99,821.54 1177.35,798.72 1168.35,752.4 1125.61,740.18 				
					"/>
				<polygon class="st4" points="1208.71,723.7 1177.35,749.31 1185.45,797.21 1227.21,806.42 1253.92,777.74 1247.34,737.72 				
					"/>
				<polygon class="st4" points="1182.93,804.3 1146.24,826.36 1158.8,856.67 1193.82,858.11 1221.58,841.52 1220.29,816.04 				"/>
				<polyline class="st4" points="1091.63,825.17 1104.71,813.77 1139.82,830.27 1149.45,855.51 1124.83,857.29 1106.57,847.59 
					1091.63,825.17 				"/>
				<polygon class="st4" points="1097.63,812.02 1089.02,819.47 1074.45,800.51 1068.53,783.22 1067.91,767.1 1072.04,753.08 
					1087.68,759.5 				"/>
				<polygon class="st4" points="1075.48,744.29 1083.52,719.13 1101.34,700.39 1120.93,700.39 1119.27,730.1 1091.24,748.81 				
					"/>
				<polygon class="st4" points="1105.26,692.39 1121.49,682.55 1146.06,675.74 1125.66,690.25 				"/>
				<polygon class="st4" points="1202.84,686.64 1220.53,695.21 1232.94,708.05 1240.74,719.89 1243.91,728.08 1226.64,721.8 
					1210.96,714.31 				"/>
				<polygon class="st4" points="1250.17,789.18 1244.5,810.36 1229.18,835.33 1225.99,811.78 				"/>
			</g>
		</g>
	</g>
</g>
</svg>
